# xmcd
#
# Track frame offsets:
#	150
#	19334
#	35746
#	49876
#	65158
#	83551
#	96537
#	110934
#	128195
#	143289
#
# Disc length: 2145 seconds
#
# Revision: 0
# Processed by: cddbd v1.5.2PL0 Copyright (c) Steve Scherf et al.
# Submitted via: EZCDAudioConverter 2.1.3.1
#
DISCID=92085f0a
DTITLE=Aaron Pritchett - Something Goin' On Here
DYEAR=2003
DGENRE=Country
TTITLE0=Eighteen
TTITLE1=My Way
TTITLE2=Lucky For Me
TTITLE3=John Roland Wood
TTITLE4=Little Things
TTITLE5=Don't Even Think About It
TTITLE6=Right Down the Line
TTITLE7=New Frontier
TTITLE8=Best Days
TTITLE9=Something Goin' On Here
EXTD=
EXTT0=
EXTT1=
EXTT2=
EXTT3=
EXTT4=
EXTT5=
EXTT6=
EXTT7=
EXTT8=
EXTT9=
PLAYORDER=
